<?xml version="1.0" encoding="UTF-8"?>
<svg id="Layer_1" data-name="Layer 1" xmlns="http://www.w3.org/2000/svg" viewBox="0 0 614.48 552.39">
  <defs>
    <style>
      .cls-1 {
        fill: #fff;
        stroke-width: 0px;
      }
    </style>
  </defs>
  <g>
    <path class="cls-1" d="m234.96,336.18h-2.53v-15.09h2.53v2.44c1.26-1.86,2.89-2.79,4.9-2.79,2.3,0,3.81,1.02,4.53,3.05,1.33-2.03,3.11-3.05,5.34-3.05,1.61,0,2.86.49,3.76,1.48.9.99,1.35,2.36,1.35,4.12v9.84h-2.53v-9.23c0-2.55-1.05-3.83-3.16-3.83-1.22,0-2.24.43-3.05,1.29s-1.22,1.97-1.22,3.32v8.45h-2.53v-9.23c0-2.55-1.05-3.83-3.16-3.83-1.24,0-2.25.43-3.05,1.28-.79.85-1.19,1.96-1.19,3.34v8.45Z"/>
    <path class="cls-1" d="m273.68,328.25c0,.39-.02.72-.06.99h-11.84c.08,1.55.57,2.76,1.48,3.64s2.11,1.32,3.6,1.32c1.76,0,3.25-.66,4.47-1.97l1.68,1.65c-1.64,1.76-3.71,2.64-6.21,2.64s-4.29-.73-5.66-2.19c-1.37-1.46-2.06-3.34-2.06-5.65s.67-4.18,2.02-5.69,3.14-2.26,5.38-2.26,3.91.72,5.22,2.15c1.32,1.43,1.97,3.22,1.97,5.37Zm-11.84-.96h9.23c-.14-1.39-.63-2.47-1.48-3.24-.85-.76-1.9-1.15-3.13-1.15s-2.37.41-3.21,1.22c-.84.81-1.31,1.87-1.41,3.16Z"/>
    <path class="cls-1" d="m291.82,336.18h-2.53v-2.47c-1.32,1.88-3.11,2.81-5.37,2.81-2.11,0-3.79-.74-5.05-2.23-1.26-1.49-1.89-3.37-1.89-5.63s.63-4.2,1.89-5.69c1.26-1.49,2.94-2.23,5.05-2.23,2.24,0,4.03.95,5.37,2.84v-8.13h2.53v20.72Zm-3.82-3.56c.86-1.05,1.29-2.38,1.29-3.99s-.43-2.93-1.29-3.98c-.86-1.04-2.07-1.57-3.61-1.57s-2.7.52-3.51,1.55c-.81,1.04-1.22,2.37-1.22,3.99s.41,2.96,1.22,4c.81,1.04,1.98,1.57,3.51,1.57s2.75-.53,3.61-1.58Z"/>
    <path class="cls-1" d="m310.74,334.2l.32,1.92c-.46.19-1.04.29-1.74.29-.77,0-1.43-.2-1.96-.6s-.86-1-.97-1.81c-1.18,1.68-2.91,2.52-5.19,2.52-1.57,0-2.82-.41-3.74-1.22s-1.39-1.93-1.39-3.37c0-.68.12-1.28.35-1.8s.52-.93.86-1.23c.34-.3.76-.56,1.26-.78.5-.22.96-.38,1.36-.46.41-.09.87-.17,1.39-.25.19-.02.52-.06.97-.12.46-.06.79-.1,1-.13.21-.03.5-.08.86-.16.36-.08.63-.16.81-.25.18-.09.38-.2.58-.35s.35-.32.44-.52.13-.44.13-.71c0-.77-.34-1.34-1.02-1.68-.68-.35-1.48-.52-2.41-.52-1.72,0-3.29.53-4.7,1.6l-1.16-1.92c1.86-1.28,3.87-1.92,6.04-1.92,1.8,0,3.22.41,4.27,1.22s1.57,2.05,1.57,3.71v7.14c0,1.08.4,1.63,1.19,1.63.39,0,.69-.08.9-.23Zm-4.61-3.83v-2.61c-.19.25-.4.46-.62.62s-.5.29-.84.39c-.34.1-.61.17-.81.22s-.55.11-1.03.17c-.48.07-.83.12-1.04.16-1.04.17-1.83.43-2.35.77s-.78.93-.78,1.78.29,1.49.87,1.92c.58.43,1.33.64,2.26.64,1.22,0,2.25-.34,3.09-1.02.84-.68,1.26-1.69,1.26-3.05Z"/>
    <path class="cls-1" d="m326.06,331.71c0,1.45-.55,2.62-1.65,3.5-1.1.88-2.61,1.32-4.53,1.32-3.04,0-5.26-1.07-6.68-3.22l1.86-1.39c1.18,1.63,2.83,2.44,4.96,2.44,1.06,0,1.92-.21,2.55-.62.64-.42.96-1.02.96-1.81,0-.72-.29-1.21-.87-1.48-.58-.27-1.67-.56-3.28-.87-1.74-.33-3.08-.8-4-1.42-.93-.62-1.39-1.61-1.39-2.96,0-1.45.55-2.55,1.64-3.31,1.09-.75,2.43-1.13,4.02-1.13,2.48,0,4.52.84,6.12,2.53l-1.68,1.6c-1.12-1.3-2.61-1.94-4.47-1.94-.89,0-1.64.17-2.26.51s-.93.85-.93,1.52c0,.29.07.55.22.78.14.23.31.42.49.57.18.15.47.28.86.41.39.13.72.22,1,.28s.67.14,1.18.23c.73.14,1.33.26,1.8.38.46.12.99.29,1.57.52.58.23,1.03.49,1.35.78.32.29.59.68.83,1.16.23.48.35,1.04.35,1.65Z"/>
    <path class="cls-1" d="m341.97,331.71c0,1.45-.55,2.62-1.65,3.5-1.1.88-2.61,1.32-4.53,1.32-3.04,0-5.26-1.07-6.68-3.22l1.86-1.39c1.18,1.63,2.83,2.44,4.96,2.44,1.06,0,1.92-.21,2.55-.62.64-.42.96-1.02.96-1.81,0-.72-.29-1.21-.87-1.48-.58-.27-1.67-.56-3.28-.87-1.74-.33-3.08-.8-4-1.42-.93-.62-1.39-1.61-1.39-2.96,0-1.45.55-2.55,1.64-3.31,1.09-.75,2.43-1.13,4.02-1.13,2.48,0,4.52.84,6.12,2.53l-1.68,1.6c-1.12-1.3-2.61-1.94-4.47-1.94-.89,0-1.64.17-2.26.51s-.93.85-.93,1.52c0,.29.07.55.22.78.14.23.31.42.49.57.18.15.47.28.86.41.39.13.72.22,1,.28s.67.14,1.18.23c.73.14,1.33.26,1.8.38.46.12.99.29,1.57.52.58.23,1.03.49,1.35.78.32.29.59.68.83,1.16.23.48.35,1.04.35,1.65Z"/>
    <path class="cls-1" d="m348.88,318.12h-2.53v-2.67h2.53v2.67Zm0,18.05h-2.53v-15.09h2.53v15.09Z"/>
    <path class="cls-1" d="m365.8,331.71c0,1.45-.55,2.62-1.65,3.5-1.1.88-2.61,1.32-4.53,1.32-3.04,0-5.26-1.07-6.68-3.22l1.86-1.39c1.18,1.63,2.83,2.44,4.96,2.44,1.06,0,1.92-.21,2.55-.62.64-.42.96-1.02.96-1.81,0-.72-.29-1.21-.87-1.48-.58-.27-1.67-.56-3.28-.87-1.74-.33-3.08-.8-4-1.42-.93-.62-1.39-1.61-1.39-2.96,0-1.45.55-2.55,1.64-3.31,1.09-.75,2.43-1.13,4.02-1.13,2.48,0,4.52.84,6.12,2.53l-1.68,1.6c-1.12-1.3-2.61-1.94-4.47-1.94-.89,0-1.64.17-2.26.51s-.93.85-.93,1.52c0,.29.07.55.22.78.14.23.31.42.49.57.18.15.47.28.86.41.39.13.72.22,1,.28s.67.14,1.18.23c.73.14,1.33.26,1.8.38.46.12.99.29,1.57.52.58.23,1.03.49,1.35.78.32.29.59.68.83,1.16.23.48.35,1.04.35,1.65Z"/>
    <path class="cls-1" d="m377.87,333.59l1.07,1.92c-.87.68-1.96,1.02-3.28,1.02-1.84,0-3.15-.64-3.95-1.92-.43-.66-.64-1.65-.64-2.99v-8.45h-2.61v-2.09h2.61v-4.24h2.53v4.24h4.88v2.09h-4.88v8.45c0,1.74.77,2.61,2.32,2.61.75,0,1.4-.21,1.94-.64Z"/>
  </g>
  <g>
    <path class="cls-1" d="m153.87,283.84v-13.14c-.97.49-1.98,1.05-3.01,1.69-3.11,1.93-5.58,4.06-7.49,6.03-2.91-5.99-5.66-9.92-7.41-12.65-1.68-2.61-3.4-5.29-4.53-8.19-.48-1.24-1.01-2.96-1.17-4.05-.06-.43-.08-.9-.09-1.33,0-.28.07-2.19,0-1.69.56-4.12,3.13-6.56,6.37-7.49,1.91-.55,3.41-.59,5.42-.05,0,0,.78.21,1.61.58,2.46,1.08,5.6,3.91,5.98,4.26,2.32-2.25,4.65-4.5,6.97-6.75-.3-.65-.73-1.44-1.34-2.26-4.99-6.65-17.84-9.56-26.75-3.9-10.02,6.36-10.74,18.49-6.24,28.51,2.61,5.81,6.62,10.84,9.74,16.37,1.09,1.92,2.11,3.91,3.03,5.94-.5.48-1.02.93-1.5,1.42-4.19,4.22-8.57,9.47-9.99,15.39-1.23,5.11-.27,11.15,3.82,14.75,4.87,4.28,12.5,3.45,17.21-.63,7.7-6.65,6.19-18.62,3.22-27.83,2.05-1.65,4.1-3.31,6.15-4.96Zm-14.74,20.07c-.15,1.6-.87,3.95-2.28,4.9-.83.57-2.29.82-2.73-.32-.69-1.79-.12-3.72.67-5.38.86-1.82,2.12-3.39,3.2-5.06.05-.08.55-.85.79-.75.11.04.1.25.26,1.43.02.14.04.31.05.36.06.59.1,1.18.12,1.77.04,1.01.02,2.04-.07,3.05Z"/>
    <path class="cls-1" d="m210.75,275.33c0,1.31-.07,2.56-.2,3.74h-39.4c.26,4.66,1.81,8.28,4.63,10.84,2.82,2.56,6.57,3.84,11.23,3.84,5.98,0,10.97-2.17,14.97-6.5l7.09,6.8c-5.91,6.24-13.4,9.36-22.46,9.36-8.47,0-15.11-2.5-19.9-7.49-4.79-4.99-7.19-11.43-7.19-19.31s2.35-14.4,7.04-19.55c4.69-5.15,11.02-7.73,18.96-7.73s13.81,2.43,18.37,7.29c4.56,4.86,6.85,11.1,6.85,18.72Zm-39.4-4.14h28.47c-.39-4.2-1.89-7.44-4.48-9.7-2.59-2.27-5.83-3.4-9.7-3.4-4.07,0-7.39,1.22-9.95,3.64-2.56,2.43-4.01,5.58-4.33,9.46Z"/>
    <path class="cls-1" d="m253.89,251.29l-3.15,10.64c-1.97-1.05-3.94-1.58-5.91-1.58-3.48,0-6.42,1.41-8.82,4.24-2.4,2.82-3.6,6.6-3.6,11.33v26.3h-10.84v-51.72h10.84v8.37c3.94-6.24,8.8-9.36,14.58-9.36,2.82,0,5.12.59,6.9,1.77Z"/>
    <path class="cls-1" d="m308.76,275.33c0,1.31-.07,2.56-.2,3.74h-39.4c.26,4.66,1.81,8.28,4.63,10.84,2.82,2.56,6.57,3.84,11.23,3.84,5.98,0,10.97-2.17,14.97-6.5l7.09,6.8c-5.91,6.24-13.4,9.36-22.46,9.36-8.47,0-15.11-2.5-19.9-7.49-4.79-4.99-7.19-11.43-7.19-19.31s2.35-14.4,7.04-19.55c4.69-5.15,11.02-7.73,18.96-7.73s13.81,2.43,18.37,7.29c4.56,4.86,6.85,11.1,6.85,18.72Zm-39.4-4.14h28.47c-.39-4.2-1.89-7.44-4.48-9.7-2.59-2.27-5.83-3.4-9.7-3.4-4.07,0-7.39,1.22-9.95,3.64-2.56,2.43-4.01,5.58-4.33,9.46Z"/>
    <path class="cls-1" d="m330.44,302.22h-10.84v-51.72h10.84v7.59c4.4-5.84,10.05-8.77,16.94-8.77,5.58,0,9.95,1.72,13.1,5.17,3.15,3.45,4.73,8.13,4.73,14.04v33.69h-10.84v-31.23c0-7.81-3.42-11.72-10.25-11.72-3.94,0-7.21,1.28-9.8,3.84-2.6,2.56-3.89,5.94-3.89,10.15v28.96Z"/>
    <rect class="cls-1" x="379" y="250.5" width="10.84" height="51.72"/>
    <path class="cls-1" d="m431.9,291.48l4.34,8.08c-3.35,2.56-7.46,3.84-12.31,3.84-6.57,0-11.23-2.2-13.99-6.6-1.64-2.43-2.46-6.04-2.46-10.84v-27.09h-8.67v-8.37h35.56v8.37h-15.96v27.19c0,5.12,2.33,7.68,6.99,7.68,2.43,0,4.6-.75,6.5-2.27Z"/>
    <path class="cls-1" d="m490.61,250.5l-20.49,53.79c-2.17,5.65-4.6,9.74-7.29,12.27-2.69,2.53-6.4,3.79-11.13,3.79-4.47,0-8.37-1.18-11.72-3.55l4.43-7.68c1.9,1.38,3.94,2.07,6.11,2.07,1.97,0,3.55-.58,4.73-1.72,1.18-1.15,2.33-2.84,3.45-5.07l1.38-2.86-21.67-51.03h12.51l14.78,37.34,13.2-37.34h11.72Z"/>
    <path class="cls-1" d="m387.66,227.14c-2.13-1.61-4.27-3.21-6.4-4.82-.36-.3-.81-.57-1.34-.76-2.39-.81-4.67.91-4.98,1.15l4.92,9.45c-.37.78-1.52,3.37-.36,4.95.63.86,1.67,1.08,2.07,1.16,4.44.92,23.61-4.37,25.92-5.01v14.38c1.57-.93,4.69-2.85,7.48-5.18,1.86-1.55,2.34-2.55,2.54-2.91.54-1.01.78-1.95.89-2.59v-6.71c3.21-.95-1.4.44,1.81-.51,3.15-.93,10.62-3.13,13.78-4.06.69-.34,1.76-.98,2.7-2.14.63-.77,2.16-2.65,1.56-4.35-.5-1.42-2.22-1.97-3.78-2.47-1.6-.51-3.01-.54-3.94-.5-18.32,4.84-24.55,6.07-42.87,10.91Z"/>
  </g>
</svg>